<svg width="29.255219" height="34.297852" viewBox="0 0 29.2552 34.2979" fill="none" xmlns="http://www.w3.org/2000/svg" xmlns:xlink="http://www.w3.org/1999/xlink">
	<desc>
			Created with Pixso.
	</desc>
	<defs/>
	<path id="Vector" d="M2.13 11.18L2.04 11.18C0.91 11.18 0 12.1 0 13.22L0 22.13C0 23.25 0.91 24.17 2.04 24.17L2.13 24.17C3.26 24.17 4.17 23.25 4.17 22.13L4.17 13.22C4.17 12.1 3.25 11.18 2.13 11.18Z" fill="#FFFFFF" fill-opacity="1.000000" fill-rule="nonzero"/>
	<path id="Vector" d="M5.15 25.56C5.15 26.6 6 27.44 7.03 27.44L9.04 27.44L9.04 32.25C9.04 33.37 9.96 34.29 11.08 34.29L11.17 34.29C12.3 34.29 13.22 33.37 13.22 32.25L13.22 27.44L16.03 27.44L16.03 32.25C16.03 33.37 16.95 34.29 18.07 34.29L18.16 34.29C19.29 34.29 20.21 33.37 20.21 32.25L20.21 27.44L22.21 27.44C23.25 27.44 24.09 26.6 24.09 25.56L24.09 11.51L5.15 11.51L5.15 25.56Z" fill="#FFFFFF" fill-opacity="1.000000" fill-rule="nonzero"/>
	<path id="Vector" d="M19.34 2.98L20.93 0.52C21.04 0.36 20.99 0.15 20.83 0.05C20.68 -0.05 20.47 -0.01 20.37 0.15L18.71 2.7C17.47 2.19 16.09 1.9 14.62 1.9C13.16 1.9 11.78 2.19 10.53 2.7L8.88 0.15C8.78 -0.01 8.57 -0.05 8.41 0.05C8.25 0.15 8.21 0.36 8.31 0.52L9.91 2.98C7.03 4.39 5.09 7.05 5.09 10.1C5.09 10.29 5.1 10.47 5.12 10.65L24.13 10.65C24.15 10.47 24.16 10.29 24.16 10.1C24.16 7.05 22.22 4.39 19.34 2.98ZM10.22 7.39C9.71 7.39 9.3 6.98 9.3 6.48C9.3 5.97 9.71 5.56 10.22 5.56C10.72 5.56 11.13 5.97 11.13 6.48C11.13 6.98 10.72 7.39 10.22 7.39ZM19.03 7.39C18.53 7.39 18.12 6.98 18.12 6.48C18.12 5.97 18.53 5.56 19.03 5.56C19.54 5.56 19.94 5.97 19.94 6.48C19.94 6.98 19.54 7.39 19.03 7.39Z" fill="#FFFFFF" fill-opacity="1.000000" fill-rule="nonzero"/>
	<path id="Vector" d="M27.2 11.18L27.12 11.18C25.99 11.18 25.07 12.1 25.07 13.22L25.07 22.13C25.07 23.25 25.99 24.17 27.12 24.17L27.21 24.17C28.33 24.17 29.25 23.25 29.25 22.13L29.25 13.22C29.25 12.1 28.33 11.18 27.2 11.18Z" fill="#FFFFFF" fill-opacity="1.000000" fill-rule="nonzero"/>
</svg>
