<svg width="36.000000" height="36.000000" viewBox="0 0 36 36" fill="none" xmlns="http://www.w3.org/2000/svg" xmlns:xlink="http://www.w3.org/1999/xlink">
	<desc>
			Created with Pixso.
	</desc>
	<defs>
		<clipPath id="clip26_8">
			<rect rx="0.000000" width="35.000000" height="35.000000" transform="translate(0.500000 0.500000)" fill="white" fill-opacity="0"/>
		</clipPath>
	</defs>
	<rect rx="0.000000" width="35.000000" height="35.000000" transform="translate(0.500000 0.500000)" fill="#FFFFFF" fill-opacity="0"/>
	<g clip-path="url(#clip26_8)">
		<path d="M27.82 19.12C27.78 14.56 31.54 12.38 31.71 12.27C29.59 9.17 26.3 8.75 25.12 8.7C22.32 8.42 19.65 10.35 18.23 10.35C16.81 10.35 14.62 8.74 12.29 8.79C9.24 8.83 6.42 10.56 4.85 13.3C1.67 18.81 4.03 26.97 7.13 31.44C8.64 33.62 10.44 36.08 12.81 35.99C15.09 35.9 15.95 34.52 18.71 34.52C21.46 34.52 22.24 35.99 24.65 35.95C27.1 35.9 28.66 33.72 30.16 31.52C31.89 28.99 32.61 26.53 32.65 26.41C32.6 26.38 27.87 24.57 27.82 19.12ZM23.29 5.74C24.54 4.22 25.39 2.1 25.16 0C23.35 0.07 21.16 1.2 19.86 2.72C18.69 4.07 17.67 6.22 17.95 8.29C19.97 8.45 22.03 7.26 23.29 5.74Z" fill="#FFFFFF" fill-opacity="1.000000" fill-rule="nonzero"/>
	</g>
</svg>
