<svg width="72.000000" height="57.741943" viewBox="0 0 72 57.7419" fill="none" xmlns="http://www.w3.org/2000/svg" xmlns:xlink="http://www.w3.org/1999/xlink">
	<desc>
			Created with Pixso.
	</desc>
	<defs/>
	<path id="Vector" d="M67.15 13.39C64.06 9.24 59.54 6.4 53.74 4.88C53.58 3.05 52.58 0.66 49.49 0.09C46.38 -0.47 44.52 1.48 43.73 3.39C40.87 3.32 37.03 3.61 32.77 4.93C27.89 6.45 23.55 9.6 20.58 13.8C17.27 18.48 15.63 24.45 15.84 31.05L0.52 43.17C0.06 43.53 -0.12 44.14 0.06 44.71C0.27 45.26 0.79 45.62 1.38 45.6C1.45 45.6 5.17 45.64 13.64 50.52C14.63 51.09 15.63 51.72 16.68 52.4C20.6 54.92 24.98 57.74 30.56 57.74C36.81 57.74 44.57 54.22 54.89 42.85C55.37 42.87 55.85 42.87 56.32 42.87C60.07 42.87 63.58 42.51 66.78 41.78C69.17 41.24 70.96 39.33 71.37 36.9C72.32 31.48 72.98 21.2 67.15 13.39ZM49.01 2.77C50.1 2.98 50.63 3.61 50.88 4.25C50.22 4.13 49.56 4.04 48.9 3.95C48.63 3.88 47.88 3.73 46.75 3.59C47.15 3.05 47.86 2.57 49.01 2.77ZM33.58 7.54C40.62 5.36 46.43 6.24 47.93 6.54C48.45 7.18 49.83 9.1 50.72 13.05C51.78 17.77 52.33 26.17 48.9 39.67C35.53 37.99 22.19 32.41 18.56 30.8C18.24 17.23 26.05 9.88 33.58 7.54ZM31.7 54.99C26.37 55.4 22.21 52.72 18.17 50.13C17.13 49.48 16.06 48.8 15.02 48.18C10.21 45.41 6.8 44.1 4.58 43.46L17.43 33.3C21.87 35.27 36.78 41.47 51.38 42.67C43.93 50.52 37.49 54.56 31.7 54.99ZM68.74 36.47C68.51 37.81 67.53 38.86 66.24 39.15C62.65 39.97 58.61 40.29 54.26 40.13C53.39 40.1 52.53 40.04 51.65 39.97C56.35 21.15 53.71 11.46 51.51 7.15C57.48 8.4 62 11.03 64.97 15C70.19 22.02 69.58 31.46 68.74 36.47Z" fill="#FFFFFF" fill-opacity="1.000000" fill-rule="nonzero"/>
</svg>
