<svg width="60.000000" height="60.000000" viewBox="0 0 60 60" fill="none" xmlns="http://www.w3.org/2000/svg" xmlns:xlink="http://www.w3.org/1999/xlink">
	<desc>
			Created with Pixso.
	</desc>
	<defs>
		<clipPath id="clip87_4">
			<rect id="bar-chart (2)" rx="0.000000" width="59.000000" height="59.000000" transform="translate(0.500000 0.500000)" fill="white" fill-opacity="0"/>
		</clipPath>
	</defs>
	<rect id="bar-chart (2)" rx="0.000000" width="59.000000" height="59.000000" transform="translate(0.500000 0.500000)" fill="#FFFFFF" fill-opacity="0"/>
	<g clip-path="url(#clip87_4)">
		<path id="Vector" d="M57.23 57.65L54.66 57.65L54.66 20.33C54.66 18.59 53.25 17.18 51.51 17.18L45.76 17.18C44.03 17.18 42.61 18.59 42.61 20.33L42.61 57.65L36.09 57.65L36.09 37.24C36.09 35.5 34.67 34.09 32.94 34.09L27.19 34.09C25.45 34.09 24.04 35.5 24.04 37.24L24.04 57.65L17.52 57.65L17.52 47.08C17.52 45.34 16.1 43.93 14.37 43.93L8.62 43.93C6.88 43.93 5.47 45.34 5.47 47.08L5.47 57.65L2.76 57.65C2.11 57.65 1.59 58.18 1.59 58.82C1.59 59.47 2.11 60 2.76 60L57.23 60C57.88 60 58.4 59.47 58.4 58.82C58.4 58.18 57.88 57.65 57.23 57.65ZM15.17 57.65L7.81 57.65L7.81 47.08C7.81 46.64 8.18 46.27 8.62 46.27L14.36 46.27C14.81 46.27 15.17 46.64 15.17 47.08L15.17 57.65ZM33.74 57.65L26.39 57.65L26.39 37.24C26.39 36.8 26.75 36.43 27.19 36.43L32.94 36.43C33.38 36.43 33.74 36.8 33.74 37.24L33.74 57.65ZM52.32 57.65L44.96 57.65L44.96 20.33C44.96 19.89 45.32 19.52 45.76 19.52L51.51 19.52C51.95 19.52 52.32 19.89 52.32 20.33L52.32 57.65Z" fill="#FFFFFF" fill-opacity="1.000000" fill-rule="nonzero"/>
		<path id="Vector" d="M54.66 1.23C54.67 0.91 54.56 0.58 54.32 0.34C54.07 0.09 53.75 -0.02 53.43 0C53.41 0 53.39 0 53.37 0L46.28 0C45.63 0 45.11 0.52 45.11 1.17C45.11 1.81 45.63 2.34 46.28 2.34L50.66 2.34L39.07 13.92L34.7 9.55C34.48 9.34 34.19 9.21 33.88 9.21C33.56 9.21 33.27 9.34 33.05 9.55L11.98 30.62C11.52 31.08 11.52 31.82 11.98 32.28C12.21 32.51 12.51 32.62 12.81 32.62C13.11 32.62 13.41 32.51 13.64 32.28L33.88 12.04L38.24 16.41C38.7 16.87 39.44 16.87 39.9 16.41L52.32 4L52.32 7.96C52.32 8.61 52.84 9.13 53.49 9.13C54.13 9.13 54.66 8.61 54.66 7.96L54.66 1.28C54.66 1.27 54.66 1.25 54.66 1.23Z" fill="#FFFFFF" fill-opacity="1.000000" fill-rule="nonzero"/>
		<path id="Vector" d="M10.03 35.54C10.03 36.19 9.51 36.71 8.86 36.71C8.21 36.71 7.69 36.19 7.69 35.54C7.69 34.89 8.21 34.37 8.86 34.37C9.51 34.37 10.03 34.89 10.03 35.54Z" fill="#FFFFFF" fill-opacity="1.000000" fill-rule="evenodd"/>
	</g>
</svg>
