<svg width="32.176270" height="32.172852" viewBox="0 0 32.1763 32.1729" fill="none" xmlns="http://www.w3.org/2000/svg" xmlns:xlink="http://www.w3.org/1999/xlink">
	<desc>
			Created with Pixso.
	</desc>
	<defs>
		<filter id="filter_140_600_dd" x="0.000000" y="0.000000" width="32.176270" height="32.172852" filterUnits="userSpaceOnUse" color-interpolation-filters="sRGB">
			<feFlood flood-opacity="0" result="BackgroundImageFix"/>
			<feColorMatrix in="SourceAlpha" type="matrix" values="0 0 0 0 0 0 0 0 0 0 0 0 0 0 0 0 0 0 127 0" result="hardAlpha"/>
			<feOffset dx="0" dy="3"/>
			<feGaussianBlur stdDeviation="3.33333"/>
			<feComposite in2="hardAlpha" operator="out" k2="-1" k3="1"/>
			<feColorMatrix type="matrix" values="0 0 0 0 1 0 0 0 0 0.15686 0 0 0 0 0.15294 0 0 0 0.2 0"/>
			<feBlend mode="normal" in2="BackgroundImageFix" result="effect_dropShadow_1"/>
			<feBlend mode="normal" in="SourceGraphic" in2="effect_dropShadow_1" result="shape"/>
		</filter>
		<linearGradient x1="27.009064" y1="-2.212660" x2="11.165904" y2="24.603067" id="paint_linear_140_600_0" gradientUnits="userSpaceOnUse">
			<stop stop-color="#F83060"/>
			<stop offset="1.000000" stop-color="#E84B28"/>
		</linearGradient>
	</defs>
	<g filter="url(#filter_140_600_dd)">
		<path id="Vector" d="M21.98 17.17L17.89 13.09L21.95 9.03C22.2 8.78 22.2 8.37 21.95 8.12L21.04 7.22C20.79 6.96 20.38 6.96 20.13 7.21L16.08 11.27L11.99 7.18C11.74 6.93 11.33 6.93 11.08 7.18L10.18 8.08C9.93 8.33 9.93 8.74 10.18 8.99L14.27 13.08L10.22 17.13C9.97 17.38 9.97 17.79 10.22 18.04L11.13 18.95C11.38 19.2 11.78 19.2 12.03 18.95L16.09 14.89L20.18 18.98C20.43 19.23 20.83 19.23 21.08 18.98L21.99 18.08C22.23 17.83 22.23 17.43 21.98 17.17Z" fill="url(#paint_linear_140_600_0)" fill-opacity="1.000000" fill-rule="nonzero"/>
	</g>
</svg>
