<svg width="65.000000" height="65.000000" viewBox="0 0 65 65" fill="none" xmlns="http://www.w3.org/2000/svg" xmlns:xlink="http://www.w3.org/1999/xlink">
	<desc>
			Created with Pixso.
	</desc>
	<defs>
		<clipPath id="clip94_156">
			<rect id="dependable" rx="0.000000" width="64.000000" height="64.000000" transform="translate(0.500000 0.500000)" fill="white" fill-opacity="0"/>
		</clipPath>
	</defs>
	<rect id="dependable" rx="0.000000" width="64.000000" height="64.000000" transform="translate(0.500000 0.500000)" fill="#FFFFFF" fill-opacity="0"/>
	<g clip-path="url(#clip94_156)">
		<path id="Vector" d="M54.2 48.51C53.99 48.03 53.43 47.81 52.95 48.01C52.46 48.22 52.24 48.78 52.44 49.26C53.71 52.23 53.48 54.32 53.05 55.54C52.55 57 51.49 58.1 50.06 58.65C49.4 58.9 48.68 59.03 47.92 59.03L45.04 59.03L45.04 55.71L47.92 55.71C49.21 55.71 49.72 55.03 49.92 54.46C50.12 53.86 50.41 52.12 48.6 49C47.74 47.52 46.05 45.14 42.82 42.18C42.54 41.93 42.14 41.86 41.79 42.01C41.45 42.16 41.22 42.5 41.22 42.88L41.22 52.72C39.99 52.9 39.03 53.97 39.03 55.26L39.03 59.45C39.03 60.74 39.99 61.8 41.22 61.99L41.22 64.04C41.22 64.57 41.65 64.99 42.18 64.99C42.7 64.99 43.13 64.57 43.13 64.04L43.13 61.99C43.8 61.89 44.37 61.49 44.71 60.93L47.92 60.93C48.5 60.93 49.06 60.87 49.61 60.76L50.08 64.17C50.15 64.65 50.56 65 51.03 65C51.07 65 51.11 64.99 51.16 64.99C51.68 64.91 52.04 64.43 51.97 63.91L51.44 60.11C53.05 59.29 54.25 57.91 54.85 56.16C55.39 54.62 55.7 52.04 54.2 48.51ZM43.14 59.77C43.14 59.96 42.98 60.11 42.79 60.11L42.19 60.11C42.19 60.11 42.19 60.11 42.17 60.11L41.6 60.11C41.23 60.11 40.93 59.81 40.93 59.45L40.93 55.26C40.93 54.89 41.23 54.6 41.6 54.6L42.79 54.6C42.98 54.6 43.14 54.75 43.14 54.94L43.14 59.77ZM43.13 52.72L43.13 45.12C45.16 47.19 46.31 48.85 46.95 49.95C48.14 52.02 48.25 53.33 48.13 53.79C48.09 53.79 48.02 53.8 47.92 53.8L44.73 53.8C44.39 53.23 43.81 52.82 43.13 52.72Z" fill="#F92F5F" fill-opacity="1.000000" fill-rule="nonzero"/>
		<path id="Vector" d="M36.56 23.18C36.08 22.98 35.52 23.21 35.32 23.7C34.85 24.86 33.74 25.6 32.5 25.6C31.68 25.6 30.91 25.29 30.34 24.71C30.05 24.42 29.82 24.08 29.67 23.7C29.47 23.22 28.92 22.98 28.43 23.18C27.94 23.37 27.71 23.93 27.9 24.42C28.15 25.03 28.52 25.58 28.99 26.06C29.93 26.99 31.17 27.51 32.5 27.51C34.52 27.51 36.33 26.3 37.09 24.42C37.29 23.93 37.05 23.38 36.56 23.18Z" fill="#F92F5F" fill-opacity="1.000000" fill-rule="nonzero"/>
		<path id="Vector" d="M27.55 17.27C27.02 17.27 26.6 17.7 26.6 18.22L26.6 18.7C26.6 19.23 27.02 19.65 27.55 19.65C28.07 19.65 28.5 19.23 28.5 18.7L28.5 18.22C28.5 17.7 28.07 17.27 27.55 17.27Z" fill="#F92F5F" fill-opacity="1.000000" fill-rule="nonzero"/>
		<path id="Vector" d="M37.44 17.27C36.92 17.27 36.49 17.7 36.49 18.22L36.49 18.7C36.49 19.23 36.92 19.65 37.44 19.65C37.97 19.65 38.4 19.23 38.4 18.7L38.4 18.22C38.4 17.7 37.97 17.27 37.44 17.27Z" fill="#F92F5F" fill-opacity="1.000000" fill-rule="nonzero"/>
		<path id="Vector" d="M38.04 46.54L36.42 44.64C36.24 44.43 35.97 44.31 35.7 44.31L29.3 44.31C29.02 44.31 28.75 44.43 28.57 44.64L26.95 46.54C26.69 46.86 26.65 47.3 26.86 47.65L30.34 53.44C30.52 53.72 30.83 53.9 31.16 53.9L33.83 53.9C34.17 53.9 34.48 53.72 34.65 53.44L38.13 47.65C38.34 47.3 38.31 46.86 38.04 46.54ZM33.29 51.99L31.7 51.99L28.84 47.26L29.74 46.21L35.26 46.21L36.15 47.26L33.29 51.99Z" fill="#F92F5F" fill-opacity="1.000000" fill-rule="nonzero"/>
		<path id="Vector" d="M52.2 44.91C51.26 43.52 50.1 42.1 48.75 40.68L48.5 38.88C47.95 34.87 44.47 31.84 40.42 31.84L39.1 31.84C39.4 31.61 39.69 31.37 39.97 31.1C41.76 29.39 42.9 27.15 43.23 24.72L44.64 24.72C46.44 24.72 47.9 23.26 47.9 21.46L47.9 20.37C47.9 19.13 47.21 18.05 46.19 17.5L46.19 8.34C46.19 5.3 43.71 2.83 40.67 2.83L39.41 2.83C38.45 1.1 36.6 0 34.62 0L28.15 0C25.99 0 23.87 0.75 22.21 2.13C21.8 2.47 21.74 3.07 22.08 3.47C22.41 3.88 23.01 3.93 23.42 3.6C24.75 2.5 26.43 1.9 28.15 1.9L34.62 1.9C37.14 1.9 37.92 4.15 37.96 4.19C38.12 4.52 38.45 4.73 38.82 4.73L40.67 4.73C42.66 4.73 44.28 6.35 44.28 8.34L44.28 17.11L43.33 17.11L43.33 13.59C43.33 10.85 42.17 8.22 40.13 6.38C39.76 6.04 39.24 5.93 38.77 6.1C38.29 6.26 37.95 6.66 37.86 7.16C37.27 10.53 34.34 12.98 30.91 12.98L22.61 12.98C22.08 12.98 21.66 13.41 21.66 13.93L21.66 17.11L20.71 17.11L20.71 9.35C20.71 8.29 20.92 7.27 21.35 6.32C21.56 5.84 21.35 5.27 20.87 5.06C20.39 4.84 19.82 5.06 19.61 5.54C19.07 6.74 18.8 8.02 18.8 9.35L18.8 17.5C17.78 18.05 17.09 19.13 17.09 20.37L17.09 21.46C17.09 23.26 18.55 24.72 20.35 24.72L21.76 24.72C22.15 27.56 23.66 30.12 25.89 31.84L24.57 31.84C20.52 31.84 17.05 34.87 16.49 38.88L16.24 40.68C14.42 42.6 12.95 44.52 11.87 46.38C9.23 50.95 9.47 54.22 10.14 56.16C10.74 57.91 11.94 59.29 13.55 60.11L13.02 63.91C12.95 64.43 13.31 64.91 13.83 64.99C13.88 64.99 13.92 64.99 13.97 64.99C14.43 64.99 14.84 64.65 14.91 64.17L15.38 60.76C15.93 60.87 16.49 60.93 17.07 60.93L20.28 60.93C20.62 61.49 21.19 61.89 21.86 61.99L21.86 64.04C21.86 64.57 22.29 64.99 22.81 64.99C23.34 64.99 23.77 64.57 23.77 64.04L23.77 61.99C25.01 61.8 25.96 60.74 25.96 59.45L25.96 55.26C25.96 53.97 25.01 52.9 23.77 52.72L23.77 42.88C23.77 42.5 23.54 42.16 23.2 42.01C22.85 41.86 22.45 41.93 22.17 42.18C18.95 45.13 17.25 47.52 16.39 49C14.59 52.12 14.87 53.86 15.08 54.46C15.28 55.03 15.78 55.71 17.07 55.71L19.95 55.71L19.95 59.03L17.07 59.03C16.31 59.03 15.59 58.9 14.93 58.65C13.5 58.1 12.44 57 11.94 55.54C11.4 53.98 11.24 51.28 13.52 47.34C14.56 45.53 16.01 43.66 17.83 41.77C17.83 41.77 17.83 41.77 17.83 41.77C17.83 41.77 17.83 41.77 17.83 41.77C19.04 40.51 20.44 39.22 21.98 37.94C22.05 37.88 22.13 37.82 22.2 37.77L23.3 39.13C23.91 39.9 24.82 40.34 25.8 40.34L29.86 40.34C30.64 40.86 31.54 41.14 32.5 41.14C33.45 41.14 34.35 40.86 35.13 40.34L39.19 40.34C40.17 40.34 41.08 39.9 41.7 39.13L42.79 37.77C42.86 37.82 42.94 37.88 43.01 37.94C44.55 39.22 45.95 40.51 47.16 41.77C47.16 41.77 47.16 41.77 47.17 41.77C47.17 41.77 47.17 41.77 47.17 41.77C48.53 43.19 49.69 44.61 50.62 45.97C50.8 46.25 51.1 46.39 51.41 46.39C51.59 46.39 51.78 46.34 51.94 46.23C52.38 45.93 52.49 45.34 52.2 44.91ZM22.2 54.6L23.39 54.6C23.76 54.6 24.06 54.89 24.06 55.26L24.06 59.45C24.06 59.81 23.76 60.11 23.39 60.11L22.82 60.11C22.82 60.11 22.83 60.11 22.8 60.11L22.2 60.11C22.01 60.11 21.86 59.96 21.86 59.77L21.86 54.94C21.86 54.75 22.01 54.6 22.2 54.6ZM17.07 53.8C16.97 53.8 16.91 53.79 16.86 53.79C16.74 53.33 16.85 52.01 18.04 49.95C18.68 48.85 19.83 47.19 21.86 45.12L21.86 52.72C21.18 52.82 20.6 53.23 20.27 53.8L17.07 53.8ZM25.8 38.43C25.4 38.43 25.03 38.25 24.78 37.94L22.78 35.44C22.45 35.03 21.85 34.96 21.44 35.29C21.15 35.52 21.03 35.88 21.1 36.22C20.99 36.3 20.87 36.39 20.76 36.48C19.98 37.13 19.23 37.78 18.52 38.44C19.22 35.72 21.71 33.75 24.57 33.75L27.75 33.75L27.75 36.39C27.75 37.11 27.91 37.81 28.21 38.43L25.8 38.43ZM35.33 36.39C35.33 37.96 34.06 39.23 32.5 39.23C30.96 39.23 29.66 37.99 29.66 36.39L29.66 33.75C29.91 33.75 30.93 34.09 32.5 34.09C33.41 34.09 34.31 33.98 35.2 33.75C35.2 33.75 35.2 33.75 35.21 33.75L35.33 33.75L35.33 36.39ZM32.5 32.19C31.29 32.19 30.11 31.94 29.07 31.51C25.91 30.19 23.75 27.14 23.58 23.72C23.55 23.22 23.13 22.82 22.63 22.82L20.35 22.82C19.6 22.82 18.99 22.21 18.99 21.46L18.99 20.37C18.99 19.62 19.6 19.01 20.35 19.01L22.61 19.01C23.14 19.01 23.56 18.59 23.56 18.06L23.56 14.89L30.91 14.89C34.93 14.89 38.4 12.24 39.51 8.46C40.74 9.88 41.43 11.7 41.43 13.59L41.43 18.06C41.43 18.59 41.86 19.01 42.38 19.01L44.64 19.01C45.39 19.01 46 19.62 46 20.37L46 21.46C46 22.21 45.39 22.82 44.64 22.82L42.37 22.82C41.86 22.82 41.44 23.22 41.42 23.72C41.3 26.01 40.32 28.14 38.65 29.72C37.86 30.48 36.94 31.08 35.92 31.51C34.84 31.96 33.68 32.19 32.5 32.19ZM44.23 36.47C44.12 36.38 44 36.3 43.89 36.22C43.96 35.88 43.84 35.52 43.55 35.29C43.14 34.96 42.54 35.03 42.21 35.44L40.21 37.94C39.96 38.25 39.59 38.43 39.19 38.43L36.78 38.43C37.08 37.8 37.24 37.11 37.24 36.39L37.24 33.75L40.42 33.75C43.29 33.75 45.77 35.72 46.47 38.44C45.76 37.78 45.01 37.13 44.23 36.47Z" fill="#F92F5F" fill-opacity="1.000000" fill-rule="nonzero"/>
	</g>
</svg>
