<svg width="53.000000" height="53.000000" viewBox="0 0 53 53" fill="none" xmlns="http://www.w3.org/2000/svg" xmlns:xlink="http://www.w3.org/1999/xlink">
	<desc>
			Created with Pixso.
	</desc>
	<defs>
		<clipPath id="clip94_0">
			<rect id="expand" rx="0.000000" width="52.000000" height="52.000000" transform="translate(0.500000 0.500000)" fill="white" fill-opacity="0"/>
		</clipPath>
	</defs>
	<rect id="expand" rx="0.000000" width="52.000000" height="52.000000" transform="translate(0.500000 0.500000)" fill="#FFFFFF" fill-opacity="0"/>
	<g clip-path="url(#clip94_0)">
		<path id="Vector" d="M1.21 10.55C1.88 10.55 2.43 10.01 2.43 9.34L2.43 4.15L10.26 11.98C10.5 12.22 10.81 12.34 11.12 12.34C11.43 12.34 11.74 12.22 11.98 11.98C12.46 11.51 12.46 10.74 11.98 10.26L4.15 2.43L9.33 2.43C10.01 2.43 10.55 1.88 10.55 1.21C10.55 0.54 10.01 0 9.33 0L1.21 0C0.54 0 0 0.54 0 1.21L0 9.34C0 10.01 0.54 10.55 1.21 10.55Z" fill="#F92F5F" fill-opacity="1.000000" fill-rule="nonzero"/>
		<path id="Vector" d="M51.8 42.64C51.14 42.64 50.61 43.18 50.61 43.84L50.61 48.92L42.69 41C42.22 40.54 41.47 40.54 41 41C40.54 41.47 40.54 42.22 41 42.69L48.92 50.61L43.84 50.61C43.18 50.61 42.64 51.14 42.64 51.8C42.64 52.46 43.18 53 43.84 53L51.8 53C52.46 53 53 52.46 53 51.8L53 43.84C52.99 43.18 52.46 42.64 51.8 42.64Z" fill="#F92F5F" fill-opacity="1.000000" fill-rule="nonzero"/>
		<path id="Vector" d="M10.3 41L2.38 48.92L2.38 43.84C2.38 43.18 1.85 42.64 1.19 42.64C0.53 42.64 0 43.18 0 43.84L0 51.8C0 52.46 0.53 53 1.19 53L9.16 53C9.81 53 10.35 52.46 10.35 51.8C10.35 51.14 9.81 50.61 9.16 50.61L4.07 50.61L11.99 42.69C12.45 42.22 12.45 41.47 11.99 41C11.52 40.54 10.77 40.54 10.3 41Z" fill="#F92F5F" fill-opacity="1.000000" fill-rule="nonzero"/>
		<path id="Vector" d="M51.78 0L43.66 0C42.98 0 42.44 0.54 42.44 1.21C42.44 1.88 42.98 2.43 43.66 2.43L48.84 2.43L41.01 10.26C40.53 10.74 40.53 11.51 41.01 11.98C41.25 12.22 41.56 12.34 41.87 12.34C42.18 12.34 42.49 12.22 42.73 11.98L50.56 4.15L50.56 9.33C50.56 10.01 51.11 10.55 51.78 10.55C52.45 10.55 53 10.01 53 9.33L53 1.21C52.99 0.54 52.45 0 51.78 0Z" fill="#F92F5F" fill-opacity="1.000000" fill-rule="nonzero"/>
	</g>
</svg>
