<svg width="15.000000" height="15.000000" viewBox="0 0 15 15" fill="none" xmlns="http://www.w3.org/2000/svg" xmlns:xlink="http://www.w3.org/1999/xlink">
	<desc>
			Created with Pixso.
	</desc>
	<defs>
		<clipPath id="clip78_18">
			<rect id="facebook-social-logo-svgrepo-com" rx="0.000000" width="14.000000" height="14.000000" transform="translate(0.500000 0.500000)" fill="white" fill-opacity="0"/>
		</clipPath>
	</defs>
	<rect id="facebook-social-logo-svgrepo-com" rx="0.000000" width="14.000000" height="14.000000" transform="translate(0.500000 0.500000)" fill="#FFFFFF" fill-opacity="0"/>
	<g clip-path="url(#clip78_18)">
		<path id="Vector" d="M5.52 2.89C5.52 2.8 5.54 2.59 5.56 2.29C5.59 1.98 5.71 1.65 5.92 1.31C6.13 0.97 6.46 0.67 6.93 0.4C7.4 0.13 8.07 0 8.95 0L11.43 0L11.43 2.7L9.62 2.7C9.44 2.7 9.27 2.77 9.12 2.9C8.97 3.03 8.89 3.16 8.89 3.28L8.89 4.96L11.43 4.96C11.41 5.29 11.38 5.61 11.34 5.92L11.24 6.73C11.2 7.01 11.16 7.26 11.12 7.5L8.87 7.5L8.87 15L5.52 15L5.52 7.5L3.89 7.5L3.89 4.96L5.52 4.96L5.52 2.89Z" fill="#9C9C9C" fill-opacity="1.000000" fill-rule="nonzero"/>
	</g>
</svg>
