<svg width="65.000000" height="65.000000" viewBox="0 0 65 65" fill="none" xmlns="http://www.w3.org/2000/svg" xmlns:xlink="http://www.w3.org/1999/xlink">
	<desc>
			Created with Pixso.
	</desc>
	<defs/>
	<path id="Vector" d="M13.61 17.33C9.97 17.33 7.02 14.42 7.02 10.83C7.02 7.24 9.97 4.33 13.61 4.33C17.25 4.33 20.2 7.24 20.2 10.83C20.19 14.42 17.25 17.32 13.61 17.33ZM13.61 6.49C11.18 6.49 9.22 8.43 9.22 10.83C9.22 13.22 11.18 15.16 13.61 15.16C16.04 15.16 18 13.22 18 10.83C18 8.43 16.04 6.49 13.61 6.49Z" fill="#F92F5F" fill-opacity="1.000000" fill-rule="nonzero"/>
	<path id="Vector" d="M38.99 48.91L38.99 51.29C38.99 52.4 38.1 53.29 36.99 53.29L29.08 53.29C27.97 53.29 27.08 52.4 27.08 51.29L27.08 40.15C27.08 39.29 26.52 38.52 25.7 38.25L21.96 37.02C21.13 36.75 20.58 35.99 20.58 35.12L20.58 27.64C20.58 26.54 21.47 25.64 22.58 25.64L30.33 25.64C33.32 25.64 35.74 23.26 35.75 20.32L35.75 20.2C35.75 19.09 34.85 18.2 33.75 18.2L5.41 18.2C2.42 18.2 0 20.58 0 23.51L0 35.21C0 36.98 1.45 38.4 3.25 38.4L3.41 38.4C4.52 38.4 5.41 39.3 5.41 40.4L5.41 55.55C5.41 56.65 4.52 57.55 3.41 57.55L2 57.55C0.89 57.55 0 58.44 0 59.55L0 63.91C0 64.51 0.48 64.99 1.08 64.99C1.68 64.99 2.16 64.51 2.16 63.91L2.16 61.68C2.16 60.57 3.06 59.68 4.16 59.68L15.33 59.68C16.43 59.68 17.33 60.57 17.33 61.68L17.33 63.91C17.33 64.51 17.81 64.99 18.41 64.99C19.01 64.99 19.5 64.51 19.5 63.91L19.5 57.42C19.5 56.32 20.39 55.42 21.5 55.42L36.99 55.42C38.1 55.42 38.99 56.32 38.99 57.42L38.99 63.91C38.99 64.51 39.48 64.99 40.08 64.99C40.68 64.99 41.16 64.51 41.16 63.91L41.16 51.04C41.16 49.94 42.06 49.04 43.16 49.04L60.83 49.04C61.93 49.04 62.83 49.94 62.83 51.04L62.83 63.91C62.83 64.51 63.31 64.99 63.91 64.99C64.51 64.99 65 64.51 65 63.91L65 48.91C65 47.81 64.1 46.91 63 46.91L40.99 46.91C39.89 46.91 38.99 47.81 38.99 48.91ZM5.41 25.66L5.41 34.28C5.41 35.38 4.52 36.28 3.41 36.28L3.25 36.28C2.65 36.28 2.16 35.8 2.16 35.21L2.16 23.51C2.16 21.75 3.62 20.32 5.41 20.32L31.58 20.32C32.68 20.32 33.62 21.3 32.96 22.19C32.37 22.99 31.41 23.51 30.33 23.51L20.41 23.51C19.31 23.51 18.41 24.41 18.41 25.51L18.41 36.66C18.41 37.52 18.97 38.29 19.79 38.56L23.53 39.78C24.36 40.05 24.91 40.82 24.91 41.68L24.91 51.67C24.91 52.57 24.18 53.29 23.29 53.29C22.39 53.29 21.66 52.57 21.66 51.67L21.66 43.32C21.66 42.48 21.14 41.73 20.35 41.44L13.52 38.92C12.21 38.44 10.83 39.41 10.83 40.8L10.83 55.92C10.83 56.82 10.1 57.55 9.2 57.55C8.31 57.55 7.58 56.82 7.58 55.92L7.58 25.66C7.58 25.06 7.09 24.58 6.5 24.58C5.9 24.58 5.41 25.06 5.41 25.66ZM17.33 54.38L17.33 55.55C17.33 56.65 16.43 57.55 15.33 57.55L15 57.55C13.89 57.55 13 56.65 13 55.55L13 43.87C13 42.48 14.38 41.51 15.69 41.99L18.19 42.91C18.97 43.2 19.5 43.95 19.5 44.79L19.5 52.21C19.5 52.81 19.01 53.29 18.41 53.29C17.81 53.29 17.33 53.78 17.33 54.38Z" fill="#F92F5F" fill-opacity="1.000000" fill-rule="nonzero"/>
	<path id="Vector" d="M50.39 44.2L55 44.2C56.11 44.2 57 43.3 57 42.2L57 19.18C57 18.08 57.9 17.18 59 17.18L59.67 17.18C61.23 17.18 62.19 15.47 61.37 14.14L54.4 2.78C53.62 1.5 51.77 1.5 50.99 2.78L44.02 14.14C43.21 15.47 44.17 17.18 45.73 17.18L46.39 17.18C47.5 17.18 48.39 18.08 48.39 19.18L48.39 42.2C48.39 43.3 49.29 44.2 50.39 44.2ZM47.53 12.55L50.99 6.9C51.77 5.63 53.62 5.63 54.4 6.9L57.86 12.55C58.53 13.63 57.75 15.02 56.48 15.02C55.58 15.02 54.85 15.75 54.85 16.65L54.85 40.03C54.85 41.14 53.96 42.03 52.85 42.03L52.54 42.03C51.44 42.03 50.54 41.14 50.54 40.03L50.54 16.65C50.54 15.75 49.82 15.02 48.92 15.02C47.65 15.02 46.87 13.63 47.53 12.55Z" fill="#F92F5F" fill-opacity="1.000000" fill-rule="nonzero"/>
</svg>
