<svg width="14.000000" height="14.000000" viewBox="0 0 14 14" fill="none" xmlns="http://www.w3.org/2000/svg" xmlns:xlink="http://www.w3.org/1999/xlink">
	<desc>
			Created with Pixso.
	</desc>
	<defs>
		<clipPath id="clip78_24">
			<rect id="instagram" rx="0.000000" width="13.000000" height="13.000000" transform="translate(0.500000 0.500000)" fill="white" fill-opacity="0"/>
		</clipPath>
	</defs>
	<rect id="instagram" rx="0.000000" width="13.000000" height="13.000000" transform="translate(0.500000 0.500000)" fill="#FFFFFF" fill-opacity="0"/>
	<g clip-path="url(#clip78_24)">
		<path id="Vector" d="M9.62 0L4.37 0C1.95 0 0 1.95 0 4.37L0 9.62C0 12.04 1.95 14 4.37 14L9.62 14C12.04 14 14 12.04 14 9.62L14 4.37C14 1.95 12.04 0 9.62 0ZM12.68 9.62C12.68 11.31 11.31 12.68 9.62 12.68L4.37 12.68C2.68 12.68 1.31 11.31 1.31 9.62L1.31 4.37C1.31 2.68 2.68 1.31 4.37 1.31L9.62 1.31C11.31 1.31 12.68 2.68 12.68 4.37L12.68 9.62Z" fill="#9C9C9C" fill-opacity="1.000000" fill-rule="nonzero"/>
		<path id="Vector" d="M7 3.5C5.06 3.5 3.5 5.06 3.5 7C3.5 8.93 5.06 10.5 7 10.5C8.93 10.5 10.5 8.93 10.5 7C10.5 5.06 8.93 3.5 7 3.5ZM7 9.18C5.79 9.18 4.81 8.2 4.81 7C4.81 5.79 5.79 4.81 7 4.81C8.2 4.81 9.18 5.79 9.18 7C9.18 8.2 8.2 9.18 7 9.18Z" fill="#9C9C9C" fill-opacity="1.000000" fill-rule="nonzero"/>
		<path id="Vector" d="M11.5 3.25C11.5 3.66 11.16 4 10.75 4C10.33 4 10 3.66 10 3.25C10 2.83 10.33 2.5 10.75 2.5C11.16 2.5 11.5 2.83 11.5 3.25Z" fill="#9C9C9C" fill-opacity="1.000000" fill-rule="evenodd"/>
	</g>
</svg>
