<svg width="60.000000" height="60.000000" viewBox="0 0 60 60" fill="none" xmlns="http://www.w3.org/2000/svg" xmlns:xlink="http://www.w3.org/1999/xlink">
	<desc>
			Created with Pixso.
	</desc>
	<defs>
		<clipPath id="clip89_0">
			<rect id="island" rx="0.000000" width="59.000000" height="59.000000" transform="translate(0.500000 0.500000)" fill="white" fill-opacity="0"/>
		</clipPath>
	</defs>
	<rect id="island" rx="0.000000" width="59.000000" height="59.000000" transform="translate(0.500000 0.500000)" fill="#FFFFFF" fill-opacity="0"/>
	<g clip-path="url(#clip89_0)">
		<path id="XMLID 416" d="M58.09 56.98C56.98 57.86 55.43 57.87 54.32 56.99L54.3 56.97C52.33 55.41 49.59 55.41 47.62 56.98C46.51 57.86 44.95 57.86 43.84 56.98C43.84 56.98 43.84 56.98 43.84 56.97C41.87 55.41 39.12 55.41 37.15 56.97L37.13 56.99C36.03 57.87 34.48 57.87 33.37 56.99L33.35 56.97C31.38 55.41 28.63 55.41 26.66 56.98C25.55 57.87 23.99 57.87 22.88 56.99L22.86 56.97C20.9 55.41 18.15 55.41 16.18 56.97L16.16 56.98C15.05 57.87 13.5 57.87 12.39 56.98C10.42 55.41 7.67 55.41 5.7 56.97L5.68 56.99C4.57 57.87 3.02 57.87 1.91 56.99C1.4 56.59 0.67 56.67 0.27 57.18C-0.14 57.68 -0.05 58.42 0.45 58.82C1.44 59.6 2.62 60 3.8 60C4.97 60 6.15 59.61 7.13 58.83L7.16 58.81C8.27 57.93 9.82 57.93 10.93 58.82C12.9 60.38 15.65 60.38 17.62 58.82L17.64 58.8C18.75 57.92 20.3 57.92 21.41 58.8L21.43 58.82C23.4 60.38 26.15 60.38 28.12 58.81C29.23 57.93 30.78 57.93 31.89 58.81L31.91 58.82C33.88 60.39 36.62 60.39 38.59 58.82L38.61 58.81C39.72 57.93 41.27 57.93 42.38 58.81C42.38 58.81 42.39 58.81 42.39 58.82C44.36 60.38 47.11 60.38 49.08 58.81C50.19 57.93 51.74 57.93 52.85 58.81L52.86 58.82C54.83 60.38 57.58 60.38 59.55 58.81C60.06 58.41 60.14 57.67 59.74 57.17C59.34 56.66 58.6 56.58 58.09 56.98Z" fill="#FFFFFF" fill-opacity="1.000000" fill-rule="nonzero"/>
		<path id="XMLID 419" d="M0.87 15.1L9.23 17.34C8.2 17.82 7.24 18.48 6.41 19.31C3.68 22.04 2.78 26.14 4.1 29.77C4.24 30.14 4.56 30.42 4.95 30.51C5.03 30.53 5.12 30.54 5.2 30.54C5.51 30.54 5.81 30.42 6.03 30.19L9.91 26.32C9.9 26.41 9.9 26.5 9.9 26.59C9.9 30.67 12.29 34.41 15.99 36.13C16.15 36.2 16.32 36.23 16.48 36.23C16.7 36.23 16.92 36.17 17.11 36.05C17.45 35.83 17.65 35.46 17.65 35.06L17.65 23.18C21.49 28.28 23.65 34.49 23.8 40.88C22.26 41.35 20.78 41.99 19.39 42.79C16.56 44.43 14.14 46.72 12.33 49.43C10.36 47.91 7.65 47.92 5.7 49.47L5.68 49.49C4.57 50.37 3.02 50.37 1.91 49.49C1.41 49.09 0.67 49.17 0.27 49.68C-0.14 50.19 -0.05 50.92 0.46 51.32C1.44 52.11 2.62 52.5 3.8 52.5C4.97 52.5 6.15 52.11 7.13 51.33L7.16 51.31C8.27 50.43 9.82 50.43 10.93 51.32C12.9 52.88 15.65 52.89 17.62 51.32L17.64 51.3C18.75 50.42 20.3 50.42 21.41 51.3L21.43 51.32C23.4 52.88 26.15 52.88 28.12 51.31C29.23 50.43 30.78 50.43 31.89 51.31L31.91 51.33C33.88 52.89 36.63 52.89 38.59 51.32L38.61 51.31C39.72 50.43 41.27 50.43 42.38 51.31C42.39 51.31 42.39 51.31 42.39 51.32C44.36 52.88 47.11 52.88 49.08 51.31C50.19 50.43 51.74 50.43 52.85 51.31L52.87 51.32C54.84 52.88 57.59 52.88 59.55 51.32C60.06 50.91 60.14 50.17 59.74 49.67C59.34 49.16 58.6 49.08 58.09 49.48C56.98 50.37 55.43 50.37 54.32 49.49L54.31 49.47C52.35 47.92 49.63 47.91 47.67 49.44C45.86 46.72 43.44 44.44 40.61 42.8C39.43 42.12 38.19 41.55 36.91 41.11L36.91 39.06C36.91 37.34 37.03 35.6 37.26 33.89C37.35 33.25 36.9 32.66 36.26 32.57C35.62 32.48 35.03 32.93 34.94 33.57C34.69 35.38 34.57 37.23 34.57 39.06L34.57 40.46C33.45 40.21 32.31 40.05 31.17 39.99L31.17 38.61C31.17 29.69 34.3 21 40 14.14L42.34 14.14L42.34 15.15C40.54 17.62 39.02 20.31 37.82 23.12C37.56 23.72 37.84 24.41 38.44 24.66C38.59 24.72 38.74 24.75 38.9 24.75C39.35 24.75 39.78 24.49 39.97 24.04C40.65 22.44 41.45 20.89 42.34 19.4L42.34 29.91C42.34 30.31 42.54 30.69 42.88 30.9C43.07 31.02 43.29 31.09 43.51 31.09C43.68 31.09 43.84 31.05 44 30.98C47.7 29.26 50.09 25.52 50.09 21.45C50.09 21.35 50.09 21.26 50.08 21.17L53.96 25.05C54.18 25.27 54.48 25.39 54.79 25.39C54.87 25.39 54.96 25.38 55.04 25.36C55.43 25.28 55.75 25 55.89 24.62C57.22 21 56.31 16.89 53.58 14.16C52.75 13.33 51.79 12.67 50.76 12.19L59.13 9.95C59.51 9.85 59.82 9.55 59.94 9.17C60.06 8.79 59.98 8.37 59.72 8.07C57.27 5.13 53.3 3.88 49.61 4.87C47.8 5.35 46.2 6.34 44.97 7.67C44.55 5.89 43.65 4.24 42.32 2.9C39.6 0.18 35.49 -0.73 31.87 0.6C31.49 0.74 31.21 1.06 31.13 1.45C31.04 1.84 31.16 2.24 31.44 2.53L35.36 6.44C35.29 6.44 35.22 6.44 35.15 6.44C31.41 6.44 27.96 8.47 26.12 11.67C25.7 11.62 25.28 11.59 24.85 11.59C24.77 11.59 24.7 11.59 24.63 11.59L28.55 7.68C28.83 7.39 28.95 6.99 28.87 6.59C28.78 6.2 28.5 5.88 28.12 5.75C24.5 4.42 20.4 5.33 17.67 8.05C16.34 9.38 15.44 11.04 15.03 12.81C13.79 11.49 12.19 10.5 10.38 10.02C6.69 9.03 2.72 10.28 0.27 13.22C0.01 13.52 -0.07 13.94 0.05 14.32C0.17 14.7 0.48 15 0.87 15.1ZM5.87 27.04C5.67 24.82 6.45 22.58 8.07 20.97C9.51 19.52 11.47 18.75 13.45 18.75C13.68 18.75 13.91 18.76 14.14 18.78L5.87 27.04ZM12.25 26.59C12.25 25.43 12.49 24.32 12.96 23.27L15.31 20.91L15.31 32.97C13.41 31.44 12.25 29.1 12.25 26.59ZM18.43 20.39L17.66 19.46L17.66 19.28L20.88 19.28C25.76 25.11 28.55 32.42 28.8 39.99C27.9 40.04 27.01 40.15 26.12 40.31C25.84 33.02 23.14 25.99 18.43 20.39ZM45.28 50.11C44.77 50.03 44.27 49.82 43.84 49.48C43.84 49.48 43.84 49.48 43.84 49.47C41.87 47.91 39.12 47.91 37.16 49.47L37.14 49.49C36.03 50.37 34.48 50.37 33.37 49.49L33.35 49.47C31.38 47.91 28.63 47.91 26.66 49.48C25.55 50.37 24 50.37 22.89 49.49L22.86 49.47C20.9 47.91 18.15 47.91 16.18 49.47L16.16 49.49C15.73 49.83 15.22 50.04 14.7 50.11C18.25 45.19 23.85 42.3 30 42.3C36.14 42.3 41.74 45.19 45.28 50.11ZM29.62 30.64C28.39 26.57 26.45 22.72 23.87 19.28L33.22 19.28C33.42 19.28 33.62 19.23 33.79 19.14C31.83 22.74 30.42 26.62 29.62 30.64ZM44.68 27.82L44.68 15.07C46.58 16.6 47.74 18.94 47.74 21.45C47.74 23.95 46.58 26.29 44.68 27.82ZM54.12 21.89L48.97 16.74C48.37 15.55 47.55 14.49 46.56 13.6C48.54 13.6 50.48 14.38 51.93 15.82C53.54 17.43 54.32 19.67 54.12 21.89ZM50.22 7.13C50.86 6.96 51.5 6.88 52.15 6.88C53.69 6.88 55.2 7.35 56.47 8.24L45.36 11.21C46.28 9.23 48.05 7.71 50.22 7.13ZM40.67 4.56C42.28 6.17 43.06 8.42 42.86 10.63L34.6 2.37C36.81 2.17 39.05 2.95 40.67 4.56ZM35.15 8.79C36.27 8.79 37.36 9.01 38.38 9.46L40.71 11.79L28.87 11.79C30.38 9.92 32.68 8.79 35.15 8.79ZM37.01 14.14C36.06 15.4 35.19 16.71 34.39 18.07C34.39 17.92 34.35 17.76 34.29 17.62C33.66 16.26 32.75 15.08 31.65 14.14L37.01 14.14ZM31.12 16.94L18.57 16.94C20.08 15.07 22.38 13.93 24.85 13.93C27.31 13.93 29.61 15.07 31.12 16.94ZM19.33 9.71C20.94 8.1 23.18 7.32 25.39 7.52L20.24 12.67C19.06 13.26 17.99 14.07 17.1 15.05C17.11 13.08 17.89 11.15 19.33 9.71ZM9.77 12.28C11.94 12.86 13.71 14.38 14.63 16.36L3.52 13.39C5.32 12.13 7.61 11.7 9.77 12.28Z" fill="#FFFFFF" fill-opacity="1.000000" fill-rule="nonzero"/>
		<path id="XMLID 765" d="M37.16 27.39C36.85 27.39 36.55 27.52 36.33 27.73C36.11 27.95 35.99 28.25 35.99 28.56C35.99 28.87 36.11 29.17 36.33 29.39C36.55 29.61 36.85 29.73 37.16 29.73C37.47 29.73 37.77 29.61 37.99 29.39C38.2 29.17 38.33 28.87 38.33 28.56C38.33 28.25 38.2 27.95 37.99 27.73C37.77 27.52 37.47 27.39 37.16 27.39Z" fill="#FFFFFF" fill-opacity="1.000000" fill-rule="nonzero"/>
	</g>
</svg>
