<svg width="65.000000" height="65.000000" viewBox="0 0 65 65" fill="none" xmlns="http://www.w3.org/2000/svg" xmlns:xlink="http://www.w3.org/1999/xlink">
	<desc>
			Created with Pixso.
	</desc>
	<defs>
		<clipPath id="clip107_1">
			<rect id="jigsaw" rx="0.000000" width="64.000000" height="64.000000" transform="translate(0.500000 0.500000)" fill="white" fill-opacity="0"/>
		</clipPath>
	</defs>
	<rect id="jigsaw" rx="0.000000" width="64.000000" height="64.000000" transform="translate(0.500000 0.500000)" fill="#FFFFFF" fill-opacity="0"/>
	<g clip-path="url(#clip107_1)">
		<path id="Vector" d="M46.37 0L7.95 0C3.83 0 0.49 3.34 0.48 7.46L0.48 45.79C0.49 49.91 3.83 53.25 7.95 53.26L19.69 53.26L19.69 51.13L7.95 51.13C5.01 51.12 2.62 48.74 2.62 45.79L2.62 27.74L9.47 27.74C10.1 27.69 10.58 27.14 10.53 26.51C10.52 26.39 10.49 26.27 10.45 26.16C9.5 24 10.48 21.48 12.64 20.53C14.8 19.58 17.31 20.56 18.26 22.72C18.74 23.82 18.74 25.06 18.26 26.16C18 26.71 18.23 27.37 18.78 27.63C18.93 27.7 19.08 27.74 19.24 27.74L26.09 27.74L26.09 34.14C25.74 34.08 25.38 34.05 25.03 34.05C21.49 34.05 18.62 36.92 18.62 40.45C18.62 43 20.13 45.31 22.46 46.32L23.32 44.37C21.16 43.43 20.17 40.91 21.11 38.75C21.79 37.19 23.32 36.19 25.03 36.19C25.61 36.19 26.2 36.31 26.73 36.55C27.27 36.78 27.9 36.54 28.14 36C28.2 35.86 28.23 35.72 28.23 35.57L28.23 27.74L33.65 27.74C33.59 28.09 33.56 28.45 33.56 28.81C33.57 31.85 35.71 34.47 38.68 35.08L39.11 32.99C37.13 32.58 35.7 30.83 35.7 28.81C35.7 28.22 35.82 27.64 36.06 27.1C36.29 26.56 36.05 25.93 35.51 25.69C35.37 25.64 35.23 25.6 35.08 25.6L28.23 25.6L28.23 20.18C28.58 20.24 28.94 20.27 29.29 20.27C32.83 20.27 35.7 17.4 35.7 13.87C35.7 10.33 32.83 7.46 29.29 7.46C28.94 7.46 28.58 7.49 28.23 7.56L28.23 2.13L46.37 2.13C49.31 2.13 51.7 4.52 51.7 7.46L51.7 25.6L44.85 25.6C44.26 25.6 43.78 26.08 43.78 26.67C43.78 26.82 43.81 26.96 43.87 27.1C44.11 27.64 44.23 28.22 44.23 28.81L46.37 28.81C46.37 28.45 46.34 28.09 46.28 27.74L52.77 27.74C53.36 27.74 53.84 27.26 53.84 26.67L53.84 7.46C53.83 3.34 50.49 0 46.37 0ZM29.29 9.6C31.65 9.6 33.56 11.51 33.56 13.87C33.56 16.22 31.65 18.14 29.29 18.14C28.71 18.14 28.12 18.01 27.59 17.77C27.05 17.54 26.42 17.79 26.18 18.33C26.12 18.46 26.09 18.61 26.09 18.75L26.09 25.52L20.67 25.52C20.73 25.19 20.76 24.87 20.76 24.54C20.76 24.52 20.76 24.5 20.76 24.48C20.76 24.46 20.76 24.46 20.76 24.45C20.76 20.91 17.89 18.05 14.35 18.05C10.82 18.05 7.95 20.91 7.95 24.45C7.95 24.46 7.95 24.47 7.95 24.48C7.95 24.49 7.95 24.52 7.95 24.54C7.95 24.87 7.98 25.19 8.04 25.52L2.62 25.52L2.62 7.46C2.62 4.52 5.01 2.13 7.95 2.13L26.09 2.13L26.09 8.98C26.09 9.57 26.57 10.05 27.16 10.05C27.31 10.05 27.45 10.02 27.59 9.96C28.12 9.72 28.71 9.6 29.29 9.6Z" fill="#F92F5F" fill-opacity="1.000000" fill-rule="nonzero"/>
		<path id="Vector" d="M62.82 45.86L53.84 39.68L50.4 30.48C50.19 29.92 49.58 29.64 49.03 29.85C49.01 29.86 48.99 29.86 48.97 29.87L42.03 32.94C41.51 33.17 41.26 33.77 41.47 34.3C41.58 34.6 41.69 34.82 41.8 35.06C41.92 35.29 42.02 35.51 42.15 35.86C42.98 38.07 41.87 40.54 39.66 41.38C37.45 42.2 34.99 41.08 34.16 38.88C33.96 38.32 33.87 37.73 33.9 37.14C33.93 36.55 33.48 36.05 32.89 36.02C32.74 36.01 32.6 36.04 32.46 36.09L25.04 38.88C24.49 39.09 24.21 39.7 24.42 40.25L27.08 47.36C26.73 47.43 26.38 47.52 26.05 47.65C22.73 48.89 21.04 52.58 22.27 55.9C23.51 59.22 27.21 60.91 30.53 59.67C30.87 59.55 31.2 59.39 31.52 59.21L33.42 64.3C33.63 64.85 34.24 65.13 34.8 64.93C34.8 64.93 34.8 64.93 34.8 64.93L45.37 60.94C46.04 62.37 47.26 63.46 48.75 63.96L49.43 61.93C48.55 61.64 47.81 61.01 47.38 60.19L50.6 58.98C51.66 61.95 54.47 63.93 57.63 63.93L57.63 61.8C54.69 61.78 52.31 59.4 52.29 56.46C52.29 56.18 52.18 55.91 51.98 55.71L48.27 51.99C47.71 51.44 47.65 50.56 48.12 49.93C48.39 49.57 48.81 49.34 49.27 49.31C49.72 49.27 50.17 49.44 50.49 49.77L57.94 57.22L59.45 55.71L57.25 53.5C57.79 51.88 57.76 50.12 57.15 48.51L55.15 43.17L61.6 47.61C62.45 48.21 62.96 49.19 62.96 50.24L62.96 64.02L65.1 64.02L65.1 50.24C65.1 48.49 64.24 46.86 62.82 45.86ZM55.15 49.26C55.45 50.05 55.55 50.89 55.46 51.72L52 48.26C50.57 46.79 48.22 46.76 46.76 48.19C45.29 49.62 45.26 51.97 46.69 53.43C46.71 53.46 46.73 53.48 46.76 53.5L50.13 56.88L35.05 62.56L33.02 57.12C32.89 56.78 32.6 56.53 32.25 56.45C32.17 56.44 32.1 56.43 32.02 56.43C31.74 56.43 31.47 56.54 31.27 56.73C29.56 58.35 26.86 58.27 25.24 56.56C23.62 54.85 23.7 52.15 25.41 50.53C25.81 50.15 26.29 49.85 26.8 49.65C27.14 49.52 27.5 49.44 27.86 49.41C28.08 49.38 28.3 49.37 28.53 49.39C29.12 49.42 29.62 48.97 29.65 48.38C29.66 48.23 29.63 48.08 29.58 47.95L26.8 40.51L31.88 38.59C32.54 42.06 35.9 44.34 39.37 43.67C39.73 43.6 40.08 43.51 40.41 43.38C43.72 42.12 45.4 38.43 44.16 35.12C44.06 34.85 43.97 34.64 43.88 34.46L48.79 32.29L55.15 49.26Z" fill="#F92F5F" fill-opacity="1.000000" fill-rule="nonzero"/>
	</g>
</svg>
