<svg width="106.972534" height="106.972534" viewBox="0 0 106.973 106.973" fill="none" xmlns="http://www.w3.org/2000/svg" xmlns:xlink="http://www.w3.org/1999/xlink">
	<desc>
			Created with Pixso.
	</desc>
	<defs>
		<clipPath id="clip87_1">
			<rect rx="0.000000" width="77.309326" height="77.309326" transform="translate(68.317871 0.500000) rotate(60.000000)" fill="white" fill-opacity="0"/>
		</clipPath>
	</defs>
	<rect rx="0.000000" width="77.309326" height="77.309326" transform="translate(68.317871 0.500000) rotate(60.000000)" fill="#FFFFFF" fill-opacity="0"/>
	<g clip-path="url(#clip87_1)">
		<path d="M31.02 50.43L32.41 52.35L27.22 54.36C26.56 54.61 26.28 55.4 26.63 56.01C26.91 56.5 27.51 56.72 28.05 56.51L33.78 54.29C34.92 53.85 35.33 52.45 34.62 51.46L33.13 49.41L33.58 49.04L38.33 50.64C39.1 50.91 39.94 50.64 40.42 49.99L41.25 48.86C41.84 48.06 41.71 46.95 40.94 46.32L38.37 44.2L37.92 42.99L42.74 41.47L43 41.91C43.41 42.62 44.23 42.98 45.03 42.79L55.39 40.35C56.01 40.21 56.39 39.59 56.25 38.97C56.1 38.35 55.48 37.96 54.86 38.11L44.83 40.46L44.56 40C44.13 39.25 43.21 38.89 42.39 39.16L36.78 40.93C35.77 41.25 35.23 42.35 35.59 43.34C36.6 46.09 35.96 45.21 39.14 47.83L38.76 48.35C32.66 46.29 33.44 46.13 31.32 47.92C30.59 48.55 30.45 49.65 31.02 50.43Z" fill="#FFFFFF" fill-opacity="1.000000" fill-rule="nonzero"/>
		<path d="M89.53 54.02L89.89 50.49L91.59 49.51C92.43 49.03 92.75 48 92.35 47.12L90.07 42.2C89.85 41.73 89.44 41.36 88.95 41.21C88 40.91 87.4 41.4 86.52 41.91L85.13 40.4C85.66 39.84 85.8 38.99 85.43 38.28L84.67 36.8C84.09 35.67 83.01 35.78 82.08 35.74L82.24 34.63L83.59 34.71C84.41 34.77 85.18 34.26 85.45 33.48L85.81 32.48C86.12 31.62 85.76 30.68 84.97 30.24L83.64 29.48L83.11 28.26C82.84 27.61 82.23 27.18 81.53 27.13L76.86 26.81C76.1 26.76 75.37 27.19 75.05 27.89L74.33 29.46C73.28 29.35 72.37 29.11 71.63 30L67.24 35.21L59.29 37.08C58.67 37.22 58.28 37.84 58.43 38.46C58.57 39.09 59.19 39.47 59.81 39.33L67.91 37.43C68.3 37.34 68.65 37.12 68.91 36.82L73.24 31.67L74.41 31.79C75.2 31.87 75.96 31.44 76.29 30.71L77.02 29.14L81.1 29.42C81.91 31.32 81.65 31.01 83.51 32.06L83.39 32.39L81.97 32.3C81.01 32.24 80.15 32.94 80.02 33.89L79.72 35.89C79.56 36.98 80.37 37.97 81.47 38.02L82.73 38.08L83.2 39C82.48 39.68 82.41 40.84 83.11 41.6L85.05 43.73C85.64 44.37 86.61 44.52 87.36 44.09L88.18 43.61L90.08 47.72L88.54 48.61C88.02 48.91 87.68 49.44 87.62 50.03L87.26 53.51L84.06 54.65L79 52.15L77.55 50.7C76.96 50.11 76.03 49.99 75.31 50.41L74.25 51.02C73.68 51.35 73.32 51.96 73.32 52.62L73.31 54.49L69.16 57.45L67.67 56.33C67.1 55.91 66.33 55.85 65.71 56.17C63.54 57.28 63.77 57.07 63.3 59.63L61.36 60.05L59.56 59.57L58.72 56.89C58.27 55.48 56.43 55.13 55.5 56.28L51.12 61.69C50.76 62.14 50.63 62.75 50.77 63.31L51.21 65.09L49.44 66.25C49.11 66.02 48.54 65.54 47.65 65.73C46.69 65.94 46.43 66.63 45.91 67.51L45.56 66.42C45.15 65.11 43.5 64.69 42.51 65.64L39.66 68.38C39.04 68.97 38.9 69.9 39.33 70.65L40.25 72.24L39.13 72.93L35.71 70.49C35.37 70.25 34.96 70.13 34.54 70.15L31.92 70.27C31.46 70.29 31.02 70.48 30.7 70.81L26.68 74.8L21.45 71.68L17.21 60.71L23.8 58.25C24.4 58.02 24.7 57.36 24.48 56.76C24.25 56.17 23.59 55.86 22.99 56.08L16.33 58.57C15.17 59.02 14.59 60.33 15.04 61.49C19.65 73.44 19.33 72.63 19.45 72.85C19.64 73.18 19.92 73.46 20.25 73.66L25.54 76.81C26.42 77.34 27.55 77.2 28.28 76.47L32.2 72.57L34.49 72.46L38.04 74.99C38.65 75.42 39.46 75.45 40.1 75.05L41.84 73.97C42.7 73.44 42.97 72.34 42.47 71.46L41.51 69.8L43.58 67.81L44.02 69.17C44.24 69.87 44.86 70.37 45.59 70.45C46.31 70.53 47.02 70.18 47.39 69.55L48.19 68.2L48.37 68.32C48.99 68.75 49.81 68.77 50.45 68.35L52.74 66.85C53.4 66.41 53.72 65.61 53.53 64.84L53.06 62.97L56.77 58.38L57.43 60.5C57.63 61.11 58.11 61.57 58.73 61.74C61.82 62.57 60.76 62.54 64.08 61.83C64.82 61.67 65.38 61.09 65.52 60.34L65.82 58.7L66.51 58.35L68.04 59.49C68.69 59.98 69.57 59.99 70.23 59.52L74.84 56.24C75.32 55.89 75.62 55.33 75.62 54.73L75.63 52.89L76.16 52.58C77.52 53.94 77.56 54.01 77.91 54.19L83.21 56.81C83.66 57.03 84.19 57.06 84.66 56.89L88.31 55.59C88.98 55.35 89.46 54.73 89.53 54.02Z" fill="#FFFFFF" fill-opacity="1.000000" fill-rule="nonzero"/>
	</g>
</svg>
