<svg width="62.000000" height="62.000000" viewBox="0 0 62 62" fill="none" xmlns="http://www.w3.org/2000/svg" xmlns:xlink="http://www.w3.org/1999/xlink">
	<desc>
			Created with Pixso.
	</desc>
	<defs>
		<clipPath id="clip89_4">
			<rect id="notification (1)" rx="0.000000" width="61.000000" height="61.000000" transform="translate(0.500000 0.500000)" fill="white" fill-opacity="0"/>
		</clipPath>
	</defs>
	<rect id="notification (1)" rx="0.000000" width="61.000000" height="61.000000" transform="translate(0.500000 0.500000)" fill="#FFFFFF" fill-opacity="0"/>
	<g clip-path="url(#clip89_4)">
		<path id="Vector" d="M53.63 45.77C52.31 44.58 51.56 42.88 51.56 41.11L51.56 29.06C51.56 28.39 51.02 27.85 50.35 27.85C49.68 27.85 49.14 28.39 49.14 29.06L49.14 41.11C49.14 43.56 50.18 45.91 51.99 47.56C52.64 48.16 53.02 49 53.02 49.89C53.02 51.62 51.6 53.03 49.87 53.03L12.09 53.03C10.35 53.03 8.94 51.62 8.94 49.89C8.94 49 9.31 48.16 9.96 47.56C11.77 45.91 12.81 43.56 12.81 41.11L12.81 27.12C12.81 17.1 20.96 8.96 30.98 8.96C33.73 8.96 36.44 9.58 38.9 10.77C38.05 12.15 37.55 13.76 37.55 15.49C37.55 20.44 41.57 24.46 46.51 24.46C51.45 24.46 55.47 20.44 55.47 15.49C55.47 10.55 51.45 6.53 46.51 6.53C44.2 6.53 42.08 7.42 40.49 8.86C38.69 7.92 36.75 7.26 34.75 6.88C35.2 6.19 35.46 5.36 35.46 4.48C35.46 2 33.45 0 30.98 0C28.51 0 26.5 2 26.5 4.48C26.5 5.36 26.76 6.19 27.2 6.88C17.65 8.66 10.39 17.06 10.39 27.12L10.39 41.11C10.39 42.88 9.64 44.58 8.33 45.77C7.18 46.83 6.52 48.33 6.52 49.89C6.52 52.96 9.01 55.46 12.09 55.46L23.32 55.46C23.91 59.16 27.12 62 30.98 62C34.84 62 38.05 59.16 38.63 55.46L49.87 55.46C52.94 55.46 55.44 52.96 55.44 49.89C55.44 48.33 54.78 46.83 53.63 45.77ZM46.51 8.96C50.12 8.96 53.05 11.89 53.05 15.49C53.05 19.1 50.12 22.03 46.51 22.03C42.91 22.03 39.97 19.1 39.97 15.49C39.97 11.89 42.91 8.96 46.51 8.96ZM30.98 2.42C32.11 2.42 33.04 3.34 33.04 4.48C33.04 5.61 32.11 6.53 30.98 6.53C29.84 6.53 28.92 5.61 28.92 4.48C28.92 3.34 29.84 2.42 30.98 2.42ZM30.98 59.57C28.46 59.57 26.34 57.81 25.79 55.46L36.16 55.46C35.61 57.81 33.5 59.57 30.98 59.57Z" fill="#FFFFFF" fill-opacity="1.000000" fill-rule="nonzero"/>
		<path id="Vector" d="M17.41 25.88C16.75 25.88 16.2 26.43 16.2 27.09L16.2 27.12C16.2 27.79 16.75 28.33 17.41 28.33C18.08 28.33 18.62 27.79 18.62 27.12L18.62 27.09C18.62 26.43 18.08 25.88 17.41 25.88Z" fill="#FFFFFF" fill-opacity="1.000000" fill-rule="nonzero"/>
		<path id="Vector" d="M30.98 12.35C25.03 12.35 19.69 15.88 17.37 21.35C17.11 21.97 17.4 22.68 18.01 22.94C18.17 23 18.33 23.04 18.49 23.04C18.96 23.04 19.41 22.76 19.6 22.3C21.54 17.72 26.01 14.77 30.98 14.77C31.65 14.77 32.19 14.23 32.19 13.56C32.19 12.89 31.65 12.35 30.98 12.35Z" fill="#FFFFFF" fill-opacity="1.000000" fill-rule="nonzero"/>
		<path id="Vector" d="M46.94 11.57C46.49 11.38 45.97 11.49 45.62 11.83L44.23 13.23C43.75 13.7 43.75 14.47 44.23 14.94C44.51 15.22 44.9 15.34 45.27 15.28L45.27 17.47C45.27 18.14 45.81 18.68 46.48 18.68C47.15 18.68 47.69 18.14 47.69 17.47L47.69 12.69C47.69 12.2 47.39 11.76 46.94 11.57Z" fill="#FFFFFF" fill-opacity="1.000000" fill-rule="nonzero"/>
	</g>
</svg>
