<svg width="228.972656" height="121.563690" viewBox="0 0 228.973 121.564" fill="none" xmlns="http://www.w3.org/2000/svg" xmlns:xlink="http://www.w3.org/1999/xlink">
	<desc>
			Created with Pixso.
	</desc>
	<defs/>
	<path d="M97.62 112.59C90.77 112.59 84.57 111.13 79.04 108.2Q73.92 105.46 70.16 101.44Q67.89 99.03 66.12 96.15Q64.84 94.01 63.92 91.72Q61.5 85.74 61.5 78.77Q61.5 71.57 64.09 65.46Q64.96 63.41 66.12 61.49Q68.05 58.32 70.57 55.7L70.57 55.7Q74.2 51.94 79.04 49.35Q80.06 48.81 81.1 48.34Q88.6 44.96 97.62 44.96Q106.92 44.96 114.52 48.55Q115.32 48.93 116.11 49.35Q120.95 51.94 124.58 55.7Q127.09 58.32 129.03 61.49C132.17 66.6 133.74 72.36 133.74 78.77C133.74 85.19 132.17 90.98 129.03 96.15Q127.25 99.03 124.99 101.44L124.99 101.44Q121.23 105.46 116.11 108.2C110.64 111.13 104.47 112.59 97.62 112.59ZM59.98 46.08L59.98 91.01Q59.98 103.92 53.63 111.54Q52.72 112.63 51.68 113.62Q50.82 114.44 49.9 115.17Q41.87 121.56 28.76 121.56Q20.37 121.56 13.39 119.22Q6.41 116.98 1.5 112.78L7.45 101.57C13.42 106.36 20.4 108.76 28.38 108.76Q36.68 108.76 40.64 104.65Q44.7 100.45 44.7 91.76L44.7 87.74Q42.71 90.16 40.23 91.85Q34.46 95.78 26.02 95.78Q15.01 95.78 8.43 90.37L8.43 90.37Q7.52 89.62 6.69 88.77Q6.61 88.68 6.52 88.59L6.52 88.59Q0 81.5 0 68.4L0 46.08L15.27 46.08L15.27 67.47Q15.27 75.13 18.95 79.05C21.4 81.67 24.86 82.98 29.33 82.98Q35.07 82.98 38.89 80.26Q39.77 79.64 40.55 78.87Q44.7 74.76 44.7 66.44L44.7 46.08L59.98 46.08ZM194.83 111.47L194.83 46.08L179.55 46.08L179.55 82.88C179.55 88.43 178.17 92.63 175.4 95.5C172.64 98.3 168.96 99.7 164.37 99.7C160.09 99.7 156.7 98.39 154.18 95.78C151.73 93.1 150.5 89.14 150.5 83.91L150.5 46.08L135.23 46.08L135.23 84.38C135.23 93.41 137.39 100.38 141.73 105.3C146.14 110.16 152.23 112.59 160.03 112.59C168.83 112.59 175.5 109.57 180.02 103.53L180.02 111.47L194.83 111.47ZM97.62 99.7C101.52 99.7 105.04 98.83 108.18 97.08C111.33 95.28 113.78 92.79 115.54 89.61Q115.91 88.96 116.23 88.29L116.23 88.29Q118.27 84.02 118.27 78.77Q118.27 73.53 116.23 69.26Q115.91 68.58 115.54 67.94C113.78 64.76 111.33 62.3 108.18 60.56C105.04 58.75 101.52 57.85 97.62 57.85Q93.13 57.85 89.31 59.45L89.31 59.45Q88.15 59.93 87.06 60.56C83.91 62.3 81.43 64.76 79.61 67.94C77.85 71.11 76.97 74.73 76.97 78.77C76.97 82.82 77.85 86.43 79.61 89.61C81.43 92.79 83.91 95.28 87.06 97.08C90.2 98.83 93.72 99.7 97.62 99.7Z" fill="#FFFFFF" fill-opacity="1.000000" fill-rule="evenodd"/>
	<g style="mix-blend-mode:normal">
		<path d="M210.45 11.22C209.97 11.95 209.39 12.39 208.72 12.55C208.08 12.71 207.46 12.66 206.85 12.41C206.24 12.15 205.73 11.74 205.32 11.17C204.93 10.56 204.77 9.88 204.84 9.12C204.87 8.61 205 8.05 205.22 7.45C205.44 6.84 205.71 6.27 206.03 5.73C206.39 5.15 206.75 4.63 207.14 4.15C207.55 3.64 207.97 3.21 208.38 2.86C209.15 2.26 210.01 1.73 210.97 1.29C211.96 0.84 212.99 0.51 214.04 0.29C215.13 0.06 216.2 -0.03 217.26 0C218.34 0.03 219.35 0.19 220.28 0.48C222.83 1.27 224.82 2.53 226.22 4.25C227.63 5.97 228.33 8.19 228.33 10.93C228.33 12.23 228.2 13.41 227.95 14.46C227.73 15.48 227.31 16.46 226.7 17.42C226.13 18.37 225.34 19.34 224.35 20.33C223.39 21.32 222.19 22.4 220.76 23.57C220.28 23.99 219.78 24.4 219.27 24.82C218.76 25.23 218.25 25.64 217.74 26.06C217.58 26.18 217.27 26.37 216.82 26.63C216.38 26.88 215.98 27.14 215.63 27.39C215.27 27.65 215.07 27.89 215 28.11C214.94 28.33 215.19 28.46 215.77 28.49C216.47 28.55 217.03 28.57 217.45 28.54C217.86 28.51 218.42 28.49 219.13 28.49C219.96 28.49 220.77 28.47 221.57 28.44C222.37 28.41 223.17 28.43 223.97 28.49C224.29 28.52 224.64 28.54 225.02 28.54C225.41 28.51 225.79 28.51 226.17 28.54C226.56 28.54 226.93 28.59 227.28 28.68C227.63 28.74 227.93 28.89 228.19 29.11C228.44 29.33 228.64 29.64 228.76 30.02C228.89 30.4 228.96 30.81 228.96 31.26C228.99 31.67 228.96 32.08 228.86 32.5C228.76 32.88 228.6 33.18 228.38 33.41C227.97 33.88 227.45 34.12 226.85 34.12C226.24 34.09 225.66 34.07 225.12 34.07L207.9 34.07C207.58 34.07 207.23 34.09 206.85 34.12C206.5 34.15 206.18 34.12 205.89 34.03C205.32 33.87 205.03 33.56 205.03 33.12C205.06 32.67 205.08 32.21 205.08 31.73C205.08 30.94 205.27 30.21 205.65 29.54C206.03 28.84 206.51 28.2 207.09 27.63C207.7 27.03 208.34 26.47 209.01 25.96C209.68 25.45 210.3 24.96 210.88 24.48C211.71 23.75 212.6 23.02 213.56 22.29C214.52 21.55 215.43 20.82 216.3 20.09C217.42 19.17 218.36 18.33 219.13 17.56C219.92 16.8 220.56 16.08 221.04 15.41C221.52 14.75 221.88 14.09 222.1 13.46C222.32 12.79 222.43 12.09 222.43 11.36C222.43 9.74 221.94 8.5 220.95 7.64C219.96 6.75 218.69 6.3 217.16 6.3C216.04 6.3 214.99 6.54 213.99 7.02C213.04 7.49 212.24 8.19 211.6 9.12C211.41 9.47 211.21 9.83 211.02 10.21C210.86 10.56 210.67 10.9 210.45 11.22Z" fill="#FFFFFF" fill-opacity="1.000000" fill-rule="nonzero"/>
	</g>
</svg>
