<svg width="88.330383" height="88.330322" viewBox="0 0 88.3304 88.3303" fill="none" xmlns="http://www.w3.org/2000/svg" xmlns:xlink="http://www.w3.org/1999/xlink">
	<desc>
			Created with Pixso.
	</desc>
	<defs>
		<clipPath id="clip88_0">
			<rect rx="0.000000" width="62.229576" height="62.229576" transform="translate(51.624146 0.500000) rotate(53.954266)" fill="white" fill-opacity="0"/>
		</clipPath>
	</defs>
	<rect rx="0.000000" width="62.229576" height="62.229576" transform="translate(51.624146 0.500000) rotate(53.954266)" fill="#FFFFFF" fill-opacity="0"/>
	<g clip-path="url(#clip88_0)">
		<path d="M57.26 58.95C57.77 58.18 57.97 57.22 57.72 56.26L56.28 47.5C56.23 47.31 56.16 47.13 56.08 46.95L75.18 33.05L57.92 9.34L22.95 34.79L33.97 49.94C32.42 51.06 24.35 56.87 24.35 56.87L32.84 68.54L54.33 61.13C55.65 60.78 56.68 59.95 57.26 58.95ZM57.44 12.42L72.11 32.57L41.96 54.5C41.83 53.85 41.9 53.1 42.37 52.2L48 48.11C49.96 46.68 51.69 45.71 50.23 43.69C48.76 41.68 45.97 41.2 44.01 42.63L35.75 48.64L26.02 35.28L57.44 12.42Z" fill="#FFFFFF" fill-opacity="1.000000" fill-rule="nonzero"/>
		<path d="M21.86 56.92L32.78 71.92L27.87 75.5L16.95 60.5L21.86 56.92Z" fill="#FFFFFF" fill-opacity="1.000000" fill-rule="evenodd"/>
	</g>
</svg>
