<svg width="65.000000" height="65.000000" viewBox="0 0 65 65" fill="none" xmlns="http://www.w3.org/2000/svg" xmlns:xlink="http://www.w3.org/1999/xlink">
	<desc>
			Created with Pixso.
	</desc>
	<defs>
		<clipPath id="clip94_106">
			<rect id="steering-wheel (2)" rx="0.000000" width="64.000000" height="64.000000" transform="translate(0.500000 0.500000)" fill="white" fill-opacity="0"/>
		</clipPath>
	</defs>
	<rect id="steering-wheel (2)" rx="0.000000" width="64.000000" height="64.000000" transform="translate(0.500000 0.500000)" fill="#FFFFFF" fill-opacity="0"/>
	<g clip-path="url(#clip94_106)">
		<path id="Vector" d="M32.5 15.16C22.92 15.16 15.16 22.92 15.16 32.49C15.16 42.07 22.92 49.83 32.5 49.83C42.07 49.83 49.83 42.07 49.83 32.49C49.82 22.93 42.06 15.17 32.5 15.16ZM47.61 31.41L41.09 31.41C40.89 29.87 40.29 28.41 39.33 27.19L43.94 22.58C46.09 25.05 47.38 28.15 47.61 31.41ZM33.58 17.38C36.84 17.61 39.94 18.9 42.41 21.05L37.8 25.66C36.58 24.7 35.12 24.1 33.58 23.9L33.58 17.38ZM31.41 17.38L31.41 23.9C29.87 24.1 28.41 24.7 27.19 25.66L22.58 21.05C25.05 18.9 28.15 17.61 31.41 17.38ZM21.05 22.58L25.66 27.19C24.7 28.41 24.1 29.87 23.9 31.41L17.38 31.41C17.61 28.15 18.9 25.05 21.05 22.58ZM17.38 33.58L23.9 33.58C24.1 35.12 24.7 36.58 25.66 37.8L21.05 42.41C18.9 39.94 17.61 36.84 17.38 33.58ZM31.41 47.61C28.15 47.38 25.05 46.09 22.58 43.94L27.19 39.33C28.41 40.29 29.87 40.89 31.41 41.09L31.41 47.61ZM26 32.49C26 28.91 28.91 26 32.5 26C36.08 26 39 28.91 39 32.49C38.99 36.08 36.08 38.99 32.5 38.99C28.91 38.99 26 36.08 26 32.49ZM33.58 47.61L33.58 41.09C35.12 40.89 36.58 40.29 37.8 39.33L42.41 43.94C39.94 46.09 36.84 47.38 33.58 47.61ZM43.94 42.41L39.33 37.8C40.29 36.58 40.89 35.12 41.09 33.58L47.61 33.58C47.38 36.84 46.09 39.94 43.94 42.41Z" fill="#F92F5F" fill-opacity="1.000000" fill-rule="nonzero"/>
		<path id="Vector" d="M32.5 28.16C30.1 28.16 28.16 30.1 28.16 32.5C28.16 34.89 30.1 36.83 32.5 36.83C34.89 36.83 36.83 34.89 36.83 32.5C36.83 30.1 34.89 28.16 32.5 28.16ZM32.5 34.66C31.3 34.66 30.33 33.69 30.33 32.5C30.33 31.3 31.3 30.33 32.5 30.33C33.69 30.33 34.66 31.3 34.66 32.5C34.66 33.69 33.69 34.66 32.5 34.66Z" fill="#F92F5F" fill-opacity="1.000000" fill-rule="nonzero"/>
		<path id="Vector" d="M61.75 29.25L57.41 29.25C57.32 29.25 57.23 29.26 57.15 29.28L54.02 30.06C53.56 26.02 51.97 22.19 49.42 19.01L52.2 17.34C52.28 17.3 52.35 17.24 52.41 17.18L55.48 14.12C56.75 12.85 56.75 10.79 55.48 9.52C55.48 9.52 55.48 9.52 55.48 9.52C54.19 8.29 52.17 8.29 50.88 9.52L47.82 12.58C47.75 12.65 47.7 12.72 47.65 12.79L45.98 15.57C42.81 13.03 38.98 11.44 34.93 10.98L35.72 7.85C35.74 7.76 35.75 7.67 35.75 7.58L35.75 3.25C35.75 1.45 34.29 0 32.5 0C30.7 0 29.25 1.45 29.25 3.25L29.25 7.58C29.25 7.67 29.26 7.76 29.28 7.84L30.06 10.97C26.02 11.43 22.19 13.02 19.01 15.57L17.34 12.79C17.3 12.71 17.24 12.64 17.18 12.58L14.11 9.51C12.82 8.29 10.8 8.29 9.51 9.51C8.25 10.78 8.25 12.84 9.51 14.11L12.58 17.17C12.64 17.24 12.71 17.29 12.79 17.34L15.57 19.01C13.02 22.18 11.43 26.01 10.97 30.06L7.84 29.28C7.76 29.26 7.67 29.25 7.58 29.25L3.25 29.25C1.45 29.25 0 30.7 0 32.5C0 34.29 1.45 35.75 3.25 35.75L7.58 35.75C7.67 35.75 7.76 35.73 7.84 35.71L10.97 34.93C11.43 38.97 13.02 42.8 15.57 45.98L12.79 47.65C12.71 47.69 12.64 47.75 12.58 47.81L9.51 50.88C8.23 52.14 8.22 54.2 9.48 55.48C10.73 56.75 12.79 56.77 14.07 55.51C14.08 55.5 14.1 55.49 14.11 55.48L17.17 52.41C17.24 52.35 17.29 52.28 17.34 52.2L19.01 49.42C22.18 51.97 26.01 53.56 30.06 54.02L29.27 57.15C29.25 57.23 29.24 57.32 29.25 57.41L29.25 61.75C29.25 63.54 30.7 65 32.5 65C34.29 65 35.75 63.54 35.75 61.75L35.75 57.41C35.75 57.32 35.73 57.23 35.71 57.15L34.93 54.02C38.97 53.56 42.8 51.97 45.98 49.42L47.65 52.2C47.69 52.28 47.75 52.35 47.81 52.41L50.87 55.48C52.13 56.76 54.19 56.77 55.47 55.51C56.75 54.26 56.77 52.2 55.51 50.92C55.5 50.91 55.48 50.89 55.47 50.88L52.41 47.82C52.34 47.75 52.27 47.7 52.2 47.65L49.42 45.98C51.96 42.81 53.55 38.98 54.01 34.93L57.14 35.72C57.23 35.74 57.32 35.75 57.41 35.75L61.75 35.75C63.54 35.75 65 34.29 65 32.5C65 30.7 63.54 29.25 61.75 29.25ZM10.83 32.73L7.45 33.58L3.25 33.58C2.65 33.58 2.16 33.09 2.16 32.5C2.16 31.9 2.65 31.41 3.25 31.41L7.45 31.41L10.83 32.26L10.83 32.73ZM49.44 14.02L52.41 11.05C52.84 10.63 53.52 10.63 53.94 11.05C54.37 11.47 54.37 12.15 53.94 12.58L50.97 15.55L47.99 17.34L47.65 17.01L49.44 14.02ZM31.41 3.25C31.41 2.65 31.9 2.16 32.5 2.16C33.09 2.16 33.58 2.65 33.58 3.25L33.58 7.45L32.73 10.83L32.26 10.83L31.41 7.45L31.41 3.25ZM14.02 15.55L11.05 12.58C10.62 12.15 10.62 11.47 11.05 11.05C11.47 10.64 12.15 10.64 12.58 11.05L15.55 14.02L17.34 17L17.01 17.34L14.02 15.55ZM15.55 50.97L12.58 53.95C12.15 54.36 11.47 54.36 11.05 53.95C10.62 53.52 10.62 52.84 11.05 52.41L14.02 49.44L17 47.65L17.34 47.98L15.55 50.97ZM33.58 61.75C33.58 62.34 33.09 62.83 32.5 62.83C31.9 62.83 31.41 62.34 31.41 61.75L31.41 57.54L32.26 54.16L32.73 54.16L33.58 57.54L33.58 61.75ZM50.97 49.44L53.95 52.41C54.37 52.84 54.37 53.52 53.95 53.94C53.52 54.35 52.84 54.35 52.41 53.94L49.44 50.97L47.65 47.99L47.98 47.65L50.97 49.44ZM32.5 52C21.73 52 13 43.26 13 32.5C13 21.73 21.73 13 32.5 13C43.26 13 52 21.73 52 32.5C51.98 43.26 43.26 51.98 32.5 52ZM61.75 33.58L57.54 33.58L54.16 32.73L54.16 32.26L57.54 31.41L61.75 31.41C62.34 31.41 62.83 31.9 62.83 32.5C62.83 33.09 62.34 33.58 61.75 33.58Z" fill="#F92F5F" fill-opacity="1.000000" fill-rule="nonzero"/>
	</g>
</svg>
