<svg width="65.000000" height="65.000000" viewBox="0 0 65 65" fill="none" xmlns="http://www.w3.org/2000/svg" xmlns:xlink="http://www.w3.org/1999/xlink">
	<desc>
			Created with Pixso.
	</desc>
	<defs>
		<clipPath id="clip89_60">
			<rect id="step" rx="0.000000" width="64.000000" height="64.000000" transform="translate(0.500000 0.500000)" fill="white" fill-opacity="0"/>
		</clipPath>
	</defs>
	<rect id="step" rx="0.000000" width="64.000000" height="64.000000" transform="translate(0.500000 0.500000)" fill="#FFFFFF" fill-opacity="0"/>
	<g clip-path="url(#clip89_60)">
		<path id="Vector" d="M58.56 26.45L43.3 26.45C41.65 26.45 40.31 27.79 40.31 29.44L40.31 38.67L37.12 38.67L37.12 33.51C37.12 31.87 35.78 30.53 34.14 30.53L30.01 30.53C29.69 30.53 29.38 30.38 29.17 30.13L27.05 27.53L44.09 1.47C44.38 1.03 44.26 0.44 43.82 0.15C43.38 -0.14 42.79 -0.01 42.5 0.43L32.1 16.32L25.48 10.7L29.91 1.35C30.13 0.88 29.93 0.31 29.46 0.09C28.98 -0.14 28.41 0.06 28.19 0.54L19.1 19.73L12.51 26.31C11.35 27.48 11.35 29.37 12.51 30.54L20.48 38.5C21.3 39.32 22.28 39.91 23.36 40.25C23.14 40.67 23.01 41.15 23.01 41.65L23.01 50.88L8.7 50.88C7.05 50.88 5.71 52.22 5.71 53.87L5.71 64.04C5.71 64.57 6.13 65 6.66 65C7.19 65 7.61 64.57 7.61 64.04L7.61 53.87C7.61 53.27 8.1 52.78 8.7 52.78L23.96 52.78C24.49 52.78 24.91 52.36 24.91 51.83L24.91 41.65C24.91 41.06 25.4 40.57 26 40.57L41.26 40.57C41.79 40.57 42.21 40.14 42.21 39.62L42.21 29.44C42.21 28.84 42.7 28.36 43.3 28.36L58.56 28.36C59.09 28.36 59.51 27.93 59.51 27.41C59.51 26.88 59.09 26.45 58.56 26.45ZM21.01 20.15L22.81 16.34L28.76 21.44L25.79 25.99L21.01 20.15ZM31.05 17.93L29.81 19.83L23.66 14.55L24.64 12.48L31.05 17.93ZM25.47 38.67C24.1 38.67 22.8 38.13 21.83 37.16L13.86 29.19C13.44 28.77 13.44 28.08 13.86 27.66L14.8 26.72L23.71 35.63C24.27 36.19 25.02 36.5 25.82 36.5L30.07 36.5C30.59 36.5 31.02 36.07 31.02 35.55C31.02 35.02 30.59 34.6 30.07 34.6L25.82 34.6C25.53 34.6 25.26 34.48 25.05 34.28L16.15 25.37L19.82 21.7L27.7 31.33C28.27 32.03 29.11 32.43 30.01 32.43L34.14 32.43C34.73 32.43 35.22 32.92 35.22 33.51L35.22 34.6L34.14 34.6C33.61 34.6 33.18 35.02 33.18 35.55C33.18 36.07 33.61 36.5 34.14 36.5L35.22 36.5L35.22 38.67L25.47 38.67Z" fill="#F92F5F" fill-opacity="1.000000" fill-rule="nonzero"/>
	</g>
</svg>
