<svg width="14.000000" height="14.000000" viewBox="0 0 14 14" fill="none" xmlns="http://www.w3.org/2000/svg" xmlns:xlink="http://www.w3.org/1999/xlink">
	<desc>
			Created with Pixso.
	</desc>
	<defs>
		<clipPath id="clip78_20">
			<rect id="twitter-logo-silhouette" rx="0.000000" width="13.000000" height="13.000000" transform="matrix(1 0 0 -1 0.5 14.5)" fill="white" fill-opacity="0"/>
		</clipPath>
	</defs>
	<rect id="twitter-logo-silhouette" rx="0.000000" width="13.000000" height="13.000000" transform="matrix(1 0 0 -1 0.5 14.5)" fill="#FFFFFF" fill-opacity="0"/>
	<g clip-path="url(#clip78_20)">
		<path id="Vector" d="M14 2.65C13.48 2.88 12.93 3.04 12.35 3.11C12.94 2.75 13.39 2.19 13.61 1.52C13.05 1.85 12.44 2.09 11.78 2.22C11.26 1.66 10.51 1.31 9.69 1.31C8.1 1.31 6.82 2.59 6.82 4.18C6.82 4.4 6.84 4.62 6.89 4.83C4.5 4.71 2.39 3.57 0.97 1.83C0.72 2.26 0.58 2.75 0.58 3.28C0.58 4.27 1.09 5.15 1.86 5.67C1.39 5.65 0.95 5.52 0.56 5.31L0.56 5.34C0.56 6.73 1.55 7.89 2.86 8.16C2.62 8.22 2.37 8.26 2.11 8.26C1.92 8.26 1.74 8.24 1.56 8.21C1.93 9.35 2.99 10.18 4.25 10.2C3.26 10.97 2.03 11.43 0.68 11.43C0.45 11.43 0.22 11.41 0 11.39C1.27 12.21 2.78 12.68 4.4 12.68C9.68 12.68 12.57 8.31 12.57 4.51L12.56 4.14C13.12 3.74 13.61 3.23 14 2.65Z" fill="#9C9C9C" fill-opacity="1.000000" fill-rule="nonzero"/>
	</g>
</svg>
