<svg width="17.060181" height="13.166016" viewBox="0 0 17.0602 13.166" fill="none" xmlns="http://www.w3.org/2000/svg" xmlns:xlink="http://www.w3.org/1999/xlink">
	<desc>
			Created with Pixso.
	</desc>
	<defs>
		<clipPath id="clip78_15">
			<rect id="vk-social-network-logo (1)" rx="0.000000" width="15.979801" height="12.061387" transform="translate(0.580688 0.500000) rotate(0.353929)" fill="white" fill-opacity="0"/>
		</clipPath>
	</defs>
	<rect id="vk-social-network-logo (1)" rx="0.000000" width="15.979801" height="12.061387" transform="translate(0.580688 0.500000) rotate(0.353929)" fill="#FFFFFF" fill-opacity="0"/>
	<g clip-path="url(#clip78_15)">
		<path id="Vector" d="M16.9 10.97C16.88 10.93 16.86 10.89 16.84 10.86C16.55 10.36 15.99 9.74 15.16 9.01L15.15 8.99L15.14 8.98L15.13 8.98L15.12 8.98C14.75 8.63 14.51 8.4 14.41 8.29C14.23 8.06 14.19 7.84 14.29 7.61C14.36 7.44 14.63 7.08 15.09 6.52C15.33 6.23 15.53 5.99 15.67 5.82C16.7 4.54 17.14 3.73 17.01 3.37L16.96 3.29C16.92 3.24 16.83 3.19 16.69 3.15C16.54 3.11 16.35 3.1 16.12 3.13L13.57 3.13C13.53 3.11 13.47 3.11 13.4 3.13C13.32 3.15 13.28 3.15 13.28 3.15L13.24 3.17L13.2 3.2C13.17 3.22 13.14 3.24 13.1 3.29C13.07 3.33 13.04 3.38 13.02 3.43C12.73 4.1 12.41 4.73 12.06 5.3C11.84 5.65 11.64 5.94 11.45 6.2C11.27 6.45 11.11 6.63 10.99 6.75C10.86 6.87 10.75 6.97 10.65 7.04C10.55 7.11 10.47 7.14 10.42 7.13C10.37 7.12 10.32 7.11 10.27 7.09C10.19 7.04 10.12 6.97 10.07 6.89C10.02 6.8 9.99 6.69 9.97 6.56C9.96 6.43 9.95 6.32 9.94 6.22C9.94 6.13 9.94 6 9.95 5.82C9.96 5.65 9.96 5.53 9.96 5.47C9.96 5.26 9.97 5.03 9.98 4.78C9.99 4.54 10 4.34 10 4.2C10.01 4.05 10.02 3.9 10.02 3.74C10.02 3.58 10.01 3.45 9.99 3.36C9.97 3.27 9.94 3.18 9.9 3.09C9.86 3 9.8 2.94 9.72 2.89C9.64 2.84 9.54 2.8 9.42 2.77C9.11 2.71 8.71 2.67 8.23 2.66C7.13 2.64 6.43 2.7 6.11 2.85C5.99 2.91 5.88 2.99 5.78 3.09C5.67 3.22 5.65 3.28 5.73 3.29C6.08 3.35 6.33 3.47 6.48 3.66L6.53 3.76C6.57 3.83 6.61 3.96 6.65 4.14C6.69 4.33 6.72 4.53 6.73 4.75C6.76 5.16 6.75 5.51 6.72 5.8C6.69 6.08 6.66 6.31 6.64 6.47C6.61 6.63 6.57 6.76 6.51 6.86C6.46 6.96 6.42 7.02 6.41 7.04C6.39 7.07 6.37 7.08 6.36 7.09C6.29 7.11 6.21 7.13 6.12 7.13C6.04 7.13 5.94 7.09 5.82 7.01C5.71 6.93 5.58 6.82 5.46 6.68C5.33 6.55 5.19 6.36 5.03 6.11C4.88 5.86 4.71 5.57 4.54 5.24L4.4 5C4.32 4.84 4.2 4.61 4.05 4.31C3.89 4.02 3.76 3.73 3.64 3.45C3.6 3.33 3.53 3.24 3.43 3.18L3.39 3.15C3.36 3.13 3.31 3.11 3.25 3.08C3.18 3.06 3.12 3.04 3.05 3.03L0.62 3.03C0.38 3.03 0.21 3.08 0.12 3.18L0.08 3.23C0.06 3.26 0.06 3.31 0.05 3.37C0.05 3.43 0.07 3.5 0.11 3.59C0.46 4.38 0.84 5.14 1.25 5.87C1.66 6.6 2.01 7.19 2.32 7.64C2.62 8.08 2.93 8.51 3.25 8.9C3.56 9.3 3.77 9.55 3.87 9.67C3.98 9.78 4.06 9.86 4.12 9.92L4.34 10.12C4.48 10.25 4.68 10.41 4.96 10.6C5.23 10.79 5.53 10.98 5.86 11.16C6.2 11.34 6.58 11.49 7.02 11.61C7.46 11.73 7.89 11.77 8.31 11.75L9.33 11.76C9.54 11.74 9.69 11.68 9.8 11.58L9.84 11.54C9.86 11.5 9.88 11.45 9.9 11.38C9.92 11.31 9.93 11.24 9.93 11.15C9.93 10.92 9.95 10.7 10 10.51C10.04 10.32 10.09 10.17 10.15 10.08C10.21 9.98 10.27 9.9 10.34 9.83C10.41 9.76 10.46 9.72 10.49 9.71C10.52 9.7 10.55 9.69 10.56 9.68C10.7 9.64 10.87 9.68 11.06 9.81C11.25 9.95 11.43 10.11 11.6 10.3C11.76 10.49 11.97 10.71 12.2 10.95C12.43 11.19 12.64 11.37 12.82 11.49L12.99 11.59C13.11 11.66 13.26 11.72 13.45 11.78C13.64 11.83 13.8 11.85 13.94 11.82L16.21 11.8C16.43 11.8 16.61 11.77 16.73 11.7C16.85 11.63 16.93 11.56 16.95 11.47C16.98 11.39 16.98 11.3 16.96 11.19C16.94 11.08 16.92 11.01 16.9 10.97Z" fill="#9C9C9C" fill-opacity="1.000000" fill-rule="nonzero"/>
	</g>
</svg>
